<?xml version="1.0" standalone="no"?>
<!DOCTYPE svg PUBLIC "-//W3C//DTD SVG 20010904//EN"
 "http://www.w3.org/TR/2001/REC-SVG-20010904/DTD/svg10.dtd">
<svg version="1.0" xmlns="http://www.w3.org/2000/svg"
 width="501.000000pt" height="609.000000pt" viewBox="0 0 501.000000 609.000000"
 preserveAspectRatio="xMidYMid meet">
<metadata>
Created by potrace 1.10, written by Peter Selinger 2001-2011
</metadata>
<g transform="translate(0.000000,609.000000) scale(0.100000,-0.100000)"
fill="currentColor" stroke="none">
<path d="M1988 6039 c-21 -12 -23 -32 -6 -58 16 -26 -2 -47 -45 -54 -36 -5
-138 -30 -212 -51 -76 -21 -176 -71 -223 -111 -41 -35 -42 -38 -42 -96 0 -80
-20 -121 -122 -249 -46 -58 -93 -126 -105 -152 -12 -26 -29 -55 -37 -65 -109
-133 -154 -212 -188 -323 -5 -19 -13 -39 -17 -45 -7 -12 -29 -102 -41 -173 -4
-29 -13 -74 -19 -100 -60 -272 -60 -1146 0 -1477 6 -33 15 -94 19 -135 5 -41
13 -109 18 -150 30 -217 34 -286 21 -351 -7 -35 -13 -124 -12 -197 0 -132 9
-185 50 -279 7 -17 13 -38 13 -46 0 -9 4 -18 9 -22 5 -3 13 -20 17 -38 15 -72
84 -206 143 -282 26 -33 63 -87 81 -120 18 -33 49 -82 69 -110 20 -27 45 -68
56 -90 11 -22 34 -58 51 -80 17 -22 51 -76 75 -120 24 -44 48 -84 55 -90 6 -5
20 -32 30 -60 33 -89 80 -152 229 -301 72 -73 123 -114 183 -149 46 -26 98
-61 115 -77 41 -37 88 -60 162 -80 133 -37 205 -48 301 -48 98 0 101 1 129 30
16 17 34 30 39 30 11 0 137 61 146 71 3 3 23 16 45 29 119 71 230 169 315 281
53 69 210 297 210 305 0 1 13 22 29 46 16 24 39 61 51 83 12 22 29 54 39 70
10 17 35 61 56 100 43 78 69 118 103 156 23 26 26 40 52 214 5 33 13 74 19 90
42 121 71 217 71 237 0 12 7 36 15 52 8 15 15 39 15 52 0 14 7 41 15 61 8 19
15 63 16 97 0 33 4 84 10 111 5 28 13 98 19 156 5 59 14 119 20 133 5 15 10
47 10 72 0 27 11 68 29 106 28 63 43 103 76 213 10 33 24 67 31 75 6 8 15 44
18 80 4 36 15 106 24 155 9 50 17 122 16 160 -1 183 -16 506 -25 560 -6 33 -8
89 -5 125 5 43 1 98 -9 158 -9 51 -15 121 -14 155 2 60 -7 100 -37 160 -8 16
-14 42 -14 59 0 18 -11 45 -29 67 -47 60 -113 201 -101 216 7 9 -2 31 -35 81
-25 37 -45 73 -45 80 0 16 -81 89 -121 109 -19 10 -48 28 -65 41 -19 14 -44
22 -64 22 -34 -1 -50 13 -134 117 -24 30 -86 78 -154 120 -9 6 -59 37 -112 71
-52 33 -109 66 -127 73 -18 7 -38 19 -44 27 -6 8 -21 14 -33 14 -33 0 -183 65
-222 97 -68 54 -109 82 -122 83 -8 0 -28 6 -45 14 -44 18 -111 36 -182 47 -33
5 -73 14 -89 19 -38 13 -396 12 -418 -1z m-83 -729 c3 -6 24 -10 46 -10 55 0
165 -32 224 -66 48 -28 54 -28 181 -27 72 1 143 7 159 13 16 6 74 13 130 16
55 2 160 10 233 16 104 9 148 8 205 -2 100 -17 193 -48 225 -74 26 -22 71 -48
102 -60 8 -3 23 -10 33 -16 28 -16 50 -28 94 -50 94 -48 204 -200 244 -339 11
-37 19 -97 19 -138 0 -62 -3 -74 -20 -83 -14 -7 -20 -21 -20 -45 0 -18 -4 -36
-9 -39 -4 -3 -14 -27 -21 -52 -11 -38 -11 -65 -1 -138 17 -134 32 -180 116
-371 36 -80 45 -104 45 -115 0 -7 6 -33 14 -59 36 -114 43 -164 66 -428 9 -99
9 -164 1 -260 -18 -199 -28 -279 -40 -301 -6 -12 -11 -30 -11 -42 0 -12 -6
-36 -14 -53 -7 -18 -21 -50 -30 -73 -10 -23 -37 -63 -62 -90 -24 -27 -44 -56
-44 -64 0 -8 -61 -76 -135 -150 -113 -113 -137 -142 -147 -178 -6 -24 -19 -49
-29 -55 -11 -7 -19 -18 -19 -26 0 -8 -7 -22 -15 -31 -11 -12 -16 -59 -21 -193
-4 -98 -11 -180 -16 -183 -4 -3 -8 -21 -8 -39 0 -24 -6 -38 -20 -45 -11 -6
-20 -18 -20 -28 -1 -9 -7 -2 -15 16 -8 18 -21 35 -30 38 -8 3 -26 28 -40 55
-22 45 -24 61 -24 180 0 99 4 140 17 172 11 28 17 71 17 131 l0 88 -36 32
c-41 34 -144 66 -219 67 -25 0 -63 6 -85 14 -22 8 -46 15 -53 15 -8 0 -28 6
-45 14 -71 30 -89 36 -110 36 -13 0 -28 -5 -34 -11 -9 -9 -20 -6 -45 10 -91
58 -89 72 26 126 75 36 87 44 101 80 28 66 31 70 61 73 36 4 88 -32 207 -142
115 -105 125 -112 134 -91 3 10 2 20 -3 24 -5 3 -35 38 -67 78 -141 177 -260
273 -362 292 -73 14 -95 14 -95 1 0 -5 5 -10 10 -10 6 0 31 -20 55 -44 41 -40
45 -48 45 -94 0 -44 -4 -54 -31 -76 -17 -14 -42 -26 -57 -26 -31 0 -110 -28
-133 -47 -8 -7 -19 -13 -23 -13 -4 0 -33 -19 -64 -43 -31 -24 -64 -47 -72 -50
-8 -4 -22 -11 -30 -15 -73 -42 -111 -43 -167 -4 -23 15 -59 51 -82 79 -41 52
-102 93 -139 93 -32 0 -46 28 -52 109 l-5 76 -32 -1 c-83 -4 -270 -209 -299
-328 l-7 -30 31 23 c17 12 73 67 123 121 51 55 98 100 105 100 15 0 139 -142
159 -182 12 -24 11 -29 -2 -37 -9 -4 -24 -6 -35 -3 -12 3 -43 -15 -93 -57 -82
-67 -117 -76 -173 -44 -29 16 -32 16 -67 -2 -46 -25 -100 -86 -126 -144 -23
-52 -24 -128 -3 -156 10 -14 13 -32 8 -62 -5 -33 -1 -50 16 -81 21 -38 22 -41
6 -63 -9 -13 -16 -31 -16 -41 0 -15 -27 -38 -44 -38 -2 0 -7 14 -11 31 -4 17
-13 42 -21 57 -8 15 -14 32 -14 37 0 6 -21 53 -47 105 -51 102 -96 160 -123
160 -18 0 -60 42 -81 80 -30 55 -48 115 -69 220 -6 30 -16 77 -22 104 -12 53
-21 167 -38 460 -12 189 -11 222 20 779 5 93 14 194 20 225 5 30 10 90 10 131
0 42 5 117 11 166 5 50 14 135 18 190 5 55 14 120 20 145 30 114 44 157 57
183 8 16 14 33 14 37 0 9 60 135 83 175 88 151 242 304 382 381 25 14 242 17
250 4z m495 -3180 c11 -5 30 -15 42 -21 21 -11 163 -26 463 -50 184 -14 193
-16 212 -45 22 -33 29 -85 43 -279 10 -149 23 -212 55 -275 7 -14 15 -64 19
-112 3 -47 8 -93 11 -100 3 -8 -6 -27 -20 -42 -14 -15 -25 -37 -25 -50 0 -41
-258 -326 -295 -326 -12 0 -34 14 -50 30 -16 17 -32 30 -35 30 -6 0 -33 -58
-44 -95 -3 -11 -27 -42 -52 -68 -39 -39 -53 -47 -84 -47 -47 0 -59 14 -67 81
-8 65 -35 115 -76 135 -29 15 -30 15 -53 -13 -13 -15 -23 -31 -24 -35 0 -5 -7
-8 -15 -8 -10 0 -15 11 -15 35 0 40 -18 46 -38 14 -7 -11 -35 -30 -61 -43 -48
-22 -81 -47 -81 -62 0 -4 -14 -29 -31 -56 -48 -74 -89 -59 -89 31 0 33 -3 41
-19 41 -10 0 -24 -7 -31 -15 -7 -8 -23 -15 -35 -15 -18 0 -24 7 -29 35 -5 27
-12 35 -28 35 -33 0 -103 80 -211 240 -98 148 -114 187 -77 197 17 5 19 11 14
42 -10 53 -21 69 -54 76 -43 10 -74 52 -64 90 4 16 6 52 5 80 -1 27 2 59 7 70
17 35 42 161 42 209 0 82 67 179 157 229 39 21 111 22 141 1 21 -14 33 -14
140 0 64 9 146 27 182 40 70 26 138 32 170 16z"/>
<path d="M1386 3900 c-22 -10 -61 -37 -87 -59 -38 -33 -56 -41 -86 -41 -31 0
-43 -6 -60 -28 -11 -15 -24 -39 -28 -52 -4 -14 -11 -29 -15 -35 -7 -9 -15
-107 -11 -142 2 -19 13 -16 41 10 189 174 210 187 313 187 40 0 88 -5 107 -11
19 -6 53 -15 75 -19 67 -14 127 -39 176 -76 68 -49 228 -231 250 -282 21 -47
26 -166 9 -177 -5 -3 -10 -16 -10 -29 0 -12 -16 -59 -35 -103 -40 -92 -43
-113 -17 -120 10 -2 26 -17 36 -33 16 -28 16 -31 -4 -74 -12 -27 -20 -66 -20
-98 0 -67 10 -128 21 -128 15 0 88 85 115 135 l28 49 -12 121 c-7 66 -14 185
-17 265 -6 148 -25 267 -54 330 -29 63 -169 266 -208 301 -40 36 -135 85 -219
112 -73 24 -235 22 -288 -3z"/>
<path d="M2900 3831 c-53 -4 -111 -14 -131 -23 -45 -20 -119 -96 -119 -122 0
-17 -41 -82 -61 -96 -11 -8 -77 -142 -84 -173 -4 -15 -11 -30 -16 -33 -5 -3
-9 -14 -9 -26 0 -11 -6 -34 -14 -51 -18 -43 -35 -110 -47 -180 -5 -32 -13 -67
-19 -77 -5 -10 -10 -61 -10 -112 0 -90 1 -96 28 -121 29 -28 49 -64 79 -140
10 -26 28 -54 41 -63 26 -17 28 -13 53 85 13 53 13 53 -14 73 -15 11 -34 33
-42 49 -15 29 -20 90 -9 102 4 4 15 30 25 59 21 61 24 125 8 183 -8 29 -8 54
1 95 13 58 45 136 61 145 5 4 18 23 28 44 30 57 108 122 224 185 70 37 74 38
272 40 105 1 113 0 180 -33 39 -18 84 -44 102 -57 17 -13 34 -24 37 -24 3 0
24 -13 48 -28 75 -49 95 -55 118 -32 24 24 24 41 6 140 -12 60 -20 79 -42 97
-28 22 -129 63 -155 63 -8 0 -39 6 -69 14 -64 16 -333 26 -470 17z"/>
<path d="M2885 3552 c-61 -39 -102 -81 -142 -147 -26 -42 -29 -55 -9 -55 13 0
109 93 140 135 12 16 19 18 42 10 21 -8 34 -25 54 -73 27 -63 65 -102 101
-102 37 0 91 54 114 115 12 33 26 60 30 60 5 0 20 -22 34 -50 34 -66 106 -137
167 -164 49 -22 90 -25 88 -6 0 10 -54 50 -76 57 -7 3 -11 23 -10 48 2 38 -2
47 -37 79 -68 62 -162 101 -245 101 -34 0 -85 7 -112 15 -67 20 -71 20 -139
-23z"/>
<path d="M1575 3564 c-53 -14 -133 -51 -156 -74 -14 -14 -42 -36 -62 -50 -21
-14 -40 -36 -43 -50 -4 -14 -15 -39 -25 -56 -11 -18 -16 -39 -13 -48 7 -19 45
-30 71 -22 21 7 69 72 100 136 31 65 53 82 100 78 37 -3 38 -4 43 -50 6 -53
27 -84 65 -94 60 -15 135 23 135 69 0 57 45 61 97 10 32 -32 38 -35 41 -20 6
28 -43 94 -91 123 -23 15 -45 32 -49 38 -7 10 -178 19 -213 10z"/>
<path d="M2690 3246 c0 -10 8 -16 22 -16 12 0 29 -6 37 -13 48 -40 462 -90
492 -60 21 21 -22 34 -143 43 -67 6 -134 13 -148 16 -14 3 -65 12 -115 19 -49
8 -102 17 -117 20 -22 6 -28 4 -28 -9z"/>
<path d="M1556 3191 c-18 -7 -18 -8 -2 -14 37 -15 131 -3 120 14 -6 11 -91 11
-118 0z"/>
<path d="M2101 1983 c-35 -13 -55 -14 -105 -5 -71 11 -229 0 -252 -18 -21 -19
-18 -32 29 -101 44 -67 76 -145 78 -189 2 -87 69 -181 184 -261 41 -28 75 -55
75 -60 0 -14 -52 -10 -84 6 -60 32 -76 13 -44 -51 28 -58 45 -66 121 -62 l62
3 3 -40 c2 -22 9 -43 15 -48 7 -4 35 -5 63 -2 72 8 98 -5 125 -64 21 -46 58
-78 73 -64 3 4 6 35 6 70 l0 63 63 60 c34 33 68 60 75 60 7 0 29 -12 47 -26
40 -30 63 -26 86 15 15 26 48 47 102 65 9 3 17 12 17 21 0 18 -32 20 -62 4
-14 -8 -23 -8 -31 0 -14 14 1 41 64 116 66 78 82 117 75 179 -5 47 -4 50 47
106 29 32 61 76 72 97 10 21 25 46 33 55 17 20 14 22 -51 33 -45 7 -149 -4
-142 -15 3 -5 24 -11 48 -15 46 -8 67 -20 67 -40 0 -19 -49 -75 -74 -86 -12
-5 -28 -13 -36 -18 -23 -14 -124 -41 -152 -41 -14 0 -39 -7 -54 -15 -16 -8
-37 -15 -47 -15 -10 0 -45 -13 -79 -30 -65 -32 -118 -37 -213 -19 -27 5 -76
13 -107 18 -31 5 -72 14 -90 19 -129 39 -154 49 -175 72 -19 20 -23 36 -23 87
0 40 5 67 14 76 22 22 192 28 564 20 230 -4 332 -3 332 4 0 18 -68 25 -270 28
-193 3 -317 10 -375 19 -16 3 -50 -2 -74 -11z m667 -335 c19 -19 14 -36 -27
-91 -43 -56 -130 -127 -157 -127 -25 0 -69 -30 -80 -54 -13 -31 -90 -66 -145
-66 -62 0 -79 7 -79 34 0 16 -11 27 -35 39 -20 9 -42 17 -49 17 -28 0 -105 41
-135 72 -28 28 -32 39 -29 78 3 43 4 45 33 43 17 0 64 -8 105 -17 88 -19 197
-20 324 -5 95 12 137 26 196 66 39 26 60 29 78 11z"/>
</g>
</svg>
